<svg width="32" height="32" viewBox="0 0 32 32" fill="none" xmlns="http://www.w3.org/2000/svg">
<g clip-path="url(#clip0_28_1081)">
<path d="M31.4521 5.72363C31.1609 2.99463 29.0056 0.838867 26.2763 0.547851C19.4321 -0.182617 12.5679 -0.182617 5.72387 0.547851C2.99463 0.839111 0.839111 2.99463 0.547851 5.72363C-0.182617 12.5676 -0.182617 19.4321 0.547851 26.2761C0.839111 29.0053 2.99463 31.1609 5.72363 31.4521C12.5676 32.1826 19.4321 32.1826 26.2763 31.4521C29.0056 31.1609 31.1609 29.0053 31.4521 26.2761C32.1826 19.4321 32.1826 12.5679 31.4521 5.72363Z" fill="url(#paint0_radial_28_1081)"/>
<path d="M29.7113 6.88098C29.453 4.45935 27.5404 2.54651 25.1185 2.28796C19.0453 1.64001 12.954 1.64001 6.88073 2.28796C4.4591 2.54651 2.54626 4.45935 2.28772 6.88098C1.63977 12.9542 1.63977 19.0455 2.28772 25.1185C2.54626 27.5404 4.4591 29.4532 6.88073 29.7115C12.954 30.3597 19.0453 30.3597 25.1183 29.7115C27.5401 29.4532 29.453 27.5404 29.7113 25.1185C30.3595 19.0455 30.3595 12.9542 29.7113 6.88098Z" fill="url(#paint1_linear_28_1081)"/>
<path d="M0.479492 25.6128C0.501465 25.834 0.52417 26.0552 0.547852 26.2764C0.839111 29.0054 2.99463 31.1609 5.72387 31.4521C12.5679 32.1826 19.4324 32.1826 26.2763 31.4521C29.0056 31.1609 31.1609 29.0054 31.4521 26.2764C31.4758 26.0552 31.4985 25.834 31.5207 25.6128H0.479492Z" fill="url(#paint2_linear_28_1081)"/>
<path d="M31.4524 26.2761C31.8449 22.5986 32.0261 18.9152 31.9968 15.2324L24.6824 7.91792C23.7685 6.87471 22.4338 6.22359 20.8655 6.16719C17.6401 6.05098 14.4045 6.05684 11.1787 6.16768C8.49951 6.25997 6.62598 8.06075 6.14551 10.7075C6.06079 11.1748 6.01001 11.6481 5.94336 12.1188V19.8781C5.98022 20.1296 6.03442 20.3798 6.05127 20.6328C6.15869 22.2426 6.82031 23.6215 7.87964 24.5544L15.323 31.9975C18.9758 32.0231 22.6289 31.8415 26.2766 31.4521C29.0058 31.1608 31.1611 29.0053 31.4524 26.2761Z" fill="url(#paint3_linear_28_1081)"/>
<path d="M31.4519 26.2764C31.1609 29.0051 29.0049 31.1611 26.2761 31.4521C22.6289 31.8413 18.9751 32.0232 15.3227 31.9975L7.89062 24.5654C8.7522 25.3196 9.87524 25.7788 11.1785 25.8279C14.4036 25.949 17.6399 25.9458 20.865 25.8296C23.782 25.7241 25.8928 23.5652 25.9839 20.6482C26.081 17.551 26.081 14.4458 25.9839 11.3486C25.9424 10.0029 25.47 8.81885 24.6868 7.92285L31.9966 15.2327C32.0254 18.915 31.8442 22.5989 31.4519 26.2764Z" fill="url(#paint4_linear_28_1081)"/>
<path d="M19.7764 12.5349C18.8393 11.5146 17.4949 10.8745 16.0005 10.8745C13.1699 10.8745 10.875 13.1694 10.875 16C10.875 17.4944 11.5151 18.8389 12.5354 19.7759L24.394 31.6345C25.0217 31.5798 25.6494 31.519 26.2766 31.4521C29.0058 31.1609 31.1614 29.0054 31.4526 26.2761C31.5195 25.6489 31.5803 25.0212 31.635 24.3935L19.7764 12.5349Z" fill="url(#paint5_linear_28_1081)"/>
<path d="M31.9377 19.447L22.3938 9.90332C22.1711 9.61108 21.8203 9.42139 21.4246 9.42139C20.7512 9.42139 20.2051 9.96728 20.2051 10.6409C20.2051 11.0366 20.3948 11.3874 20.687 11.6101L31.7671 22.6904C31.8423 21.6096 31.8992 20.5283 31.9377 19.447Z" fill="url(#paint6_linear_28_1081)"/>
<path d="M5.94336 12.1188C6.01001 11.6481 6.06079 11.1748 6.14551 10.7075C6.62573 8.06075 8.49951 6.25997 11.1787 6.16768C14.4045 6.05684 17.6401 6.05098 20.8655 6.16719C23.7815 6.27217 25.8933 8.43135 25.9844 11.3483C26.0813 14.4458 26.0813 17.5507 25.9844 20.6481C25.8933 23.5651 23.7822 25.7241 20.8657 25.8293C17.6404 25.9457 14.404 25.9487 11.179 25.8276C8.26245 25.718 6.24634 23.5539 6.05127 20.6325C6.03442 20.3798 5.98022 20.1293 5.94336 19.8779C5.94336 17.2915 5.94336 14.705 5.94336 12.1188ZM16.0029 24.1005C17.479 24.1005 18.9565 24.1447 20.4307 24.0903C22.7419 24.0046 24.1636 22.6252 24.2175 20.3161C24.2844 17.4389 24.2844 14.5578 24.2175 11.6804C24.1636 9.37178 22.741 7.96016 20.4307 7.91109C17.4983 7.84908 14.5627 7.84956 11.6304 7.91109C9.33764 7.95918 7.91186 9.34224 7.84961 11.6254C7.77051 14.539 7.77051 17.4577 7.84961 20.3713C7.91186 22.6542 9.33764 24.0053 11.6306 24.0903C13.0862 24.1445 14.5454 24.1005 16.0029 24.1005Z" fill="url(#paint7_linear_28_1081)"/>
<path d="M5.94336 12.1188C6.01001 11.6481 6.06079 11.1748 6.14551 10.7075C6.62573 8.06075 8.49951 6.25997 11.1787 6.16768C14.4045 6.05684 17.6401 6.05098 20.8655 6.16719C23.7815 6.27217 25.8933 8.43135 25.9844 11.3483C26.0813 14.4458 26.0813 17.5507 25.9844 20.6481C25.8933 23.5651 23.7822 25.7241 20.8657 25.8293C17.6404 25.9457 14.404 25.9487 11.179 25.8276C8.26245 25.718 6.24634 23.5539 6.05127 20.6325C6.03442 20.3798 5.98022 20.1293 5.94336 19.8779C5.94336 17.2915 5.94336 14.705 5.94336 12.1188ZM16.0029 24.1005C17.479 24.1005 18.9565 24.1447 20.4307 24.0903C22.7419 24.0046 24.1636 22.6252 24.2175 20.3161C24.2844 17.4389 24.2844 14.5578 24.2175 11.6804C24.1636 9.37178 22.741 7.96016 20.4307 7.91109C17.4983 7.84908 14.5627 7.84956 11.6304 7.91109C9.33764 7.95918 7.91186 9.34224 7.84961 11.6254C7.77051 14.539 7.77051 17.4577 7.84961 20.3713C7.91186 22.6542 9.33764 24.0053 11.6306 24.0903C13.0862 24.1445 14.5454 24.1005 16.0029 24.1005Z" fill="white"/>
<path d="M16.0005 10.8748C13.1699 10.8748 10.875 13.1694 10.875 16C10.875 18.8308 13.1699 21.1255 16.0005 21.1255C18.8313 21.1255 21.126 18.8308 21.126 16C21.126 13.1694 18.8313 10.8748 16.0005 10.8748ZM16.0005 19.3608C14.1443 19.3608 12.6396 17.8562 12.6396 16C12.6396 14.1438 14.1443 12.6392 16.0005 12.6392C17.8567 12.6392 19.3613 14.1438 19.3613 16C19.3613 17.8562 17.8567 19.3608 16.0005 19.3608Z" fill="white"/>
<path d="M22.6438 10.6409C22.6438 11.3142 22.0979 11.8601 21.4246 11.8601C20.7512 11.8601 20.2051 11.3142 20.2051 10.6409C20.2051 9.96728 20.7512 9.42139 21.4246 9.42139C22.0979 9.42139 22.6438 9.96728 22.6438 10.6409Z" fill="white"/>
</g>
<defs>
<radialGradient id="paint0_radial_28_1081" cx="0" cy="0" r="1" gradientUnits="userSpaceOnUse" gradientTransform="translate(6.55981 27.9654) scale(35.2903)">
<stop stop-color="#FAE100"/>
<stop offset="0.0544" stop-color="#FADC04"/>
<stop offset="0.1167" stop-color="#FBCE0E"/>
<stop offset="0.1829" stop-color="#FCB720"/>
<stop offset="0.2514" stop-color="#FE9838"/>
<stop offset="0.3054" stop-color="#FF7950"/>
<stop offset="0.4922" stop-color="#FF1C74"/>
<stop offset="1" stop-color="#6C1CD1"/>
</radialGradient>
<linearGradient id="paint1_linear_28_1081" x1="12.2729" y1="13.9036" x2="-41.9388" y2="-16.5905" gradientUnits="userSpaceOnUse">
<stop stop-color="#A1B5D8" stop-opacity="0"/>
<stop offset="0.3094" stop-color="#90A2BD" stop-opacity="0.309804"/>
<stop offset="0.7554" stop-color="#7C8B9C" stop-opacity="0.756863"/>
<stop offset="1" stop-color="#748290"/>
</linearGradient>
<linearGradient id="paint2_linear_28_1081" x1="16" y1="28.2479" x2="16" y2="33.2359" gradientUnits="userSpaceOnUse">
<stop stop-color="#FAE100" stop-opacity="0"/>
<stop offset="0.3068" stop-color="#FCA800" stop-opacity="0.305882"/>
<stop offset="0.6275" stop-color="#FE7300" stop-opacity="0.627451"/>
<stop offset="0.8685" stop-color="#FF5200" stop-opacity="0.866667"/>
<stop offset="1" stop-color="#FF4500"/>
</linearGradient>
<linearGradient id="paint3_linear_28_1081" x1="14.1798" y1="14.1342" x2="6.26029" y2="6.21471" gradientUnits="userSpaceOnUse">
<stop stop-color="#833AB4" stop-opacity="0"/>
<stop offset="1" stop-color="#833AB4"/>
</linearGradient>
<linearGradient id="paint4_linear_28_1081" x1="21.931" y1="29.2679" x2="17.9782" y2="10.6336" gradientUnits="userSpaceOnUse">
<stop stop-color="#833AB4" stop-opacity="0"/>
<stop offset="1" stop-color="#833AB4"/>
</linearGradient>
<linearGradient id="paint5_linear_28_1081" x1="23.4358" y1="23.4353" x2="7.55931" y2="7.55881" gradientUnits="userSpaceOnUse">
<stop stop-color="#833AB4" stop-opacity="0"/>
<stop offset="1" stop-color="#833AB4"/>
</linearGradient>
<linearGradient id="paint6_linear_28_1081" x1="24.6127" y1="13.8289" x2="19.3626" y2="8.5789" gradientUnits="userSpaceOnUse">
<stop stop-color="#833AB4" stop-opacity="0"/>
<stop offset="1" stop-color="#833AB4"/>
</linearGradient>
<linearGradient id="paint7_linear_28_1081" x1="22.3539" y1="9.69055" x2="9.40915" y2="22.6353" gradientUnits="userSpaceOnUse">
<stop stop-color="#833AB4"/>
<stop offset="0.0922" stop-color="#9C3495"/>
<stop offset="0.2927" stop-color="#DC2546"/>
<stop offset="0.392" stop-color="#FD1D1D"/>
<stop offset="0.5589" stop-color="#FC6831"/>
<stop offset="0.6887" stop-color="#FC9B40"/>
<stop offset="0.7521" stop-color="#FCAF45"/>
<stop offset="0.7806" stop-color="#FDB750"/>
<stop offset="0.8656" stop-color="#FECB6A"/>
<stop offset="0.9415" stop-color="#FFD87A"/>
<stop offset="1" stop-color="#FFDC80"/>
</linearGradient>
<clipPath id="clip0_28_1081">
<rect width="32" height="32" fill="white"/>
</clipPath>
</defs>
</svg>
