<svg width="32" height="32" viewBox="0 0 32 32" fill="none" xmlns="http://www.w3.org/2000/svg">
<g clip-path="url(#clip0_28_1121)">
<path d="M16 32C24.8366 32 32 24.8366 32 16C32 7.16344 24.8366 0 16 0C7.16344 0 0 7.16344 0 16C0 24.8366 7.16344 32 16 32Z" fill="url(#paint0_linear_28_1121)"/>
<path fill-rule="evenodd" clip-rule="evenodd" d="M7.24238 15.8312C11.9067 13.799 15.017 12.4593 16.5732 11.812C21.0166 9.96388 21.9399 9.64282 22.5416 9.63219C22.674 9.62988 22.9699 9.66269 23.1616 9.81825C23.446 10.049 23.4476 10.5499 23.4161 10.8814C23.1753 13.4114 22.1334 19.5509 21.6033 22.3846C21.379 23.5836 20.9374 23.9856 20.5099 24.0249C19.5808 24.1104 18.8752 23.4109 17.9753 22.821C16.5671 21.8979 15.7715 21.3233 14.4046 20.4225C12.8249 19.3815 13.8489 18.8094 14.7492 17.8743C14.9848 17.6296 19.0786 13.9059 19.1579 13.5681C19.1678 13.5259 19.177 13.3684 19.0834 13.2853C18.9899 13.2021 18.8518 13.2305 18.7522 13.2531C18.6109 13.2852 16.3613 14.7721 12.0033 17.7139C11.3648 18.1524 10.7864 18.366 10.2682 18.3548C9.69688 18.3425 8.598 18.0318 7.78106 17.7663C6.77906 17.4406 5.98269 17.2683 6.05206 16.7152C6.08819 16.427 6.48494 16.1324 7.24238 15.8312Z" fill="white"/>
</g>
<defs>
<linearGradient id="paint0_linear_28_1121" x1="16" y1="0" x2="16" y2="31.75" gradientUnits="userSpaceOnUse">
<stop stop-color="#2AABEE"/>
<stop offset="1" stop-color="#229ED9"/>
</linearGradient>
<clipPath id="clip0_28_1121">
<rect width="32" height="32" fill="white"/>
</clipPath>
</defs>
</svg>
