<svg width="32" height="32" viewBox="0 0 32 32" fill="none" xmlns="http://www.w3.org/2000/svg">
<g clip-path="url(#clip0_28_1094)">
<path d="M19.2009 0H12.8001C6.62351 0 1.59863 5.02488 1.59863 11.2014V16.0021C1.59863 20.3384 4.09951 24.2736 7.99945 26.1246V31.4707C7.99945 31.9349 8.58013 32.1776 8.91001 31.8479L13.5543 27.2035H19.2008C25.3773 27.2035 30.4023 22.1786 30.4023 16.0021V11.2014C30.4023 5.02488 25.3773 0 19.2009 0Z" fill="#665CAC"/>
<path d="M9.59963 26.1246C5.6997 24.2734 3.19882 20.3383 3.19882 16.002V11.2014C3.19882 5.02488 8.22376 0 14.4003 0H12.8001C6.62351 0 1.59863 5.02488 1.59863 11.2014V16.0021C1.59863 20.3384 4.09951 24.2736 7.99945 26.1246V31.4707C7.99945 31.9349 8.58013 32.1776 8.91001 31.8479L9.59963 31.1583V26.1246Z" fill="#523494"/>
<path d="M24.0535 19.8814L23.5739 17.2835C23.5343 17.0689 23.368 16.9001 23.154 16.8573L19.3823 16.103C19.2071 16.0681 19.0266 16.1228 18.9004 16.2489L17.3681 17.7812C14.7864 16.6244 13.3535 15.1884 12.0928 12.4959L13.6201 10.9685C13.7462 10.8424 13.8009 10.6615 13.766 10.4867L13.0117 6.71492C12.9689 6.50098 12.8001 6.33461 12.5854 6.29498L9.98757 5.81548C9.91645 5.80242 9.8432 5.80379 9.77257 5.81986C9.08664 5.97567 8.46076 6.32129 7.96257 6.81961C7.09995 7.68223 6.77026 8.94098 7.00926 10.4598C7.41045 13.0102 8.65995 16.5594 10.9653 18.874L10.9968 18.9052C13.3095 21.2089 16.8588 22.4585 19.4093 22.8598C19.7306 22.9104 20.0401 22.9355 20.3368 22.9355C21.4428 22.9355 22.3693 22.5866 23.0496 21.9064C23.5478 21.4082 23.8936 20.7823 24.0493 20.0965C24.0651 20.0258 24.0666 19.9527 24.0535 19.8814Z" fill="white"/>
<path d="M13.0977 11.4899L13.6192 10.9683L13.6198 10.9678L13.0977 11.4898L13.0977 11.4899Z" fill="#E5E5E5"/>
<path d="M18.8997 16.2483L18.373 16.7749L18.3731 16.775L18.8997 16.2484L18.8997 16.2483Z" fill="#E5E5E5"/>
<path d="M21.3417 21.9295C21.045 21.9295 20.7355 21.9044 20.4142 21.8538C17.8638 21.4526 14.3145 20.2029 12.0017 17.8993L11.9702 17.868C9.66485 15.5534 8.41535 12.0042 8.01416 9.45382C7.8211 8.22676 7.9996 7.16957 8.53016 6.35376C8.32697 6.48932 8.13628 6.64482 7.9616 6.81951C7.09897 7.68213 6.76928 8.94089 7.00828 10.4597C7.40947 13.0101 8.65897 16.5593 10.9643 18.8739L10.9958 18.9051C13.3085 21.2088 16.8578 22.4584 19.4083 22.8597C19.7297 22.9103 20.0391 22.9354 20.3358 22.9354C21.4418 22.9354 22.3683 22.5866 23.0487 21.9063C23.2233 21.7316 23.3788 21.541 23.5143 21.3378C22.912 21.7296 22.1783 21.9295 21.3417 21.9295Z" fill="#E5E5E5"/>
<path d="M17.0666 9.06763C16.772 9.06763 16.5332 9.30644 16.5332 9.601C16.5332 9.89556 16.772 10.1344 17.0666 10.1344C18.2431 10.1344 19.2002 11.0915 19.2002 12.268C19.2002 12.5586 19.443 12.8014 19.7336 12.8014C20.0242 12.8014 20.267 12.5586 20.267 12.268C20.267 10.5033 18.8313 9.06763 17.0666 9.06763Z" fill="white"/>
<path d="M17.0669 6.93408C16.8696 6.93408 16.6705 6.94502 16.475 6.96658C16.1821 6.99889 15.971 7.26246 16.0033 7.55533C16.0356 7.84821 16.2997 8.05883 16.592 8.02702C16.7488 8.00971 16.9085 8.0009 17.0669 8.0009C19.4198 8.0009 21.3341 9.91514 21.3341 12.2681C21.3341 12.4265 21.3253 12.5863 21.308 12.743C21.2761 13.0318 21.4907 13.3 21.7796 13.3318C22.0685 13.3636 22.3365 13.149 22.3684 12.8601C22.39 12.6646 22.4009 12.4655 22.4009 12.2681C22.4009 9.32696 20.0081 6.93408 17.0669 6.93408Z" fill="white"/>
<path d="M17.0669 4.80054C16.8762 4.80054 16.6832 4.80779 16.4932 4.82222C16.1994 4.84447 15.9793 5.10072 16.0015 5.39441C16.0237 5.68816 16.2809 5.90829 16.5737 5.88604C16.737 5.8736 16.903 5.86735 17.0669 5.86735C20.5963 5.86735 23.4677 8.73873 23.4677 12.2682C23.4677 12.7675 23.41 13.2647 23.2964 13.7457C23.2312 14.0213 23.401 14.3078 23.6743 14.3827C23.9619 14.4614 24.2661 14.2811 24.3346 13.991C24.4672 13.4297 24.5345 12.8501 24.5345 12.2682C24.5345 8.15048 21.1845 4.80054 17.0669 4.80054Z" fill="white"/>
</g>
<defs>
<clipPath id="clip0_28_1094">
<rect width="32" height="32" fill="white"/>
</clipPath>
</defs>
</svg>
