<svg width="16" height="16" viewBox="0 0 16 16" fill="none" xmlns="http://www.w3.org/2000/svg">
<g clip-path="url(#clip0_28_1024)">
<path d="M15.3869 3.26711C14.773 2.42233 13.6978 1.65983 12.3595 1.12015C11.0284 0.583396 9.48293 0.286552 8.00765 0.284458C6.53225 0.280771 4.98484 0.574552 3.65184 1.10711C2.31121 1.64277 1.23353 2.40196 0.617339 3.24474C0.0255265 4.05418 -0.145036 4.92665 0.124058 5.76783C0.298652 6.31349 0.80787 6.68068 1.3915 6.68152L3.38996 6.6834C3.39065 6.6834 3.39131 6.6834 3.39196 6.6834C3.79046 6.68336 4.16487 6.50893 4.41931 6.20458C4.67106 5.90349 4.77531 5.50999 4.70543 5.12493C4.70337 5.11361 4.7009 5.1024 4.69806 5.09124L4.5929 4.68243C5.17521 4.40458 6.49459 3.86777 8.0015 3.8763C9.50731 3.88402 10.8258 4.42052 11.4088 4.69849L11.3019 5.10499C11.2989 5.11652 11.2963 5.12808 11.2942 5.13974C11.2232 5.52458 11.3264 5.91836 11.5772 6.22018C11.8312 6.5258 12.2059 6.70136 12.6054 6.70196L14.6039 6.70383C14.6046 6.70383 14.6052 6.70383 14.6059 6.70383C15.1884 6.7038 15.6978 6.33833 15.8737 5.7938C16.1453 4.95283 15.977 4.07915 15.3869 3.26711Z" fill="#EAEAEA"/>
<path d="M12.5188 8.74399L11.0285 7.17914C10.9384 7.08452 10.8134 7.03099 10.6828 7.03099H9.71964V6.38027C9.71964 6.11661 9.50589 5.90283 9.2422 5.90283C8.97852 5.90283 8.76477 6.11658 8.76477 6.38027V7.03099H7.23595V6.38027C7.23595 6.11661 7.0222 5.90283 6.75852 5.90283C6.49483 5.90283 6.28108 6.11658 6.28108 6.38027V7.03099H5.31798C5.18733 7.03099 5.06236 7.08455 4.97227 7.17914L3.48195 8.74399C2.31345 9.97093 1.66992 11.5797 1.66992 13.2741V15.2382C1.66992 15.5019 1.88367 15.7156 2.14736 15.7156H13.8534C14.117 15.7156 14.3308 15.5019 14.3308 15.2382V13.2741C14.3308 11.5797 13.6873 9.97096 12.5188 8.74399ZM8.00036 13.9705C6.62255 13.9705 5.50164 12.8495 5.50164 11.4717C5.50164 10.0939 6.62258 8.97299 8.00036 8.97299C9.37814 8.97299 10.4991 10.0939 10.4991 11.4717C10.4991 12.8495 9.37814 13.9705 8.00036 13.9705Z" fill="#EAEAEA"/>
<path d="M7.9999 9.92773C7.14859 9.92773 6.45605 10.6203 6.45605 11.4716C6.45605 12.3229 7.14862 13.0155 7.9999 13.0155C8.85118 13.0155 9.54374 12.3229 9.54374 11.4716C9.54374 10.6203 8.85118 9.92773 7.9999 9.92773Z" fill="#EAEAEA"/>
</g>
<defs>
<clipPath id="clip0_28_1024">
<rect width="16" height="16" fill="white"/>
</clipPath>
</defs>
</svg>
